<?xml version="1.0" encoding="utf-8" standalone="no"?>
<!DOCTYPE svg PUBLIC "-//W3C//DTD SVG 1.1//EN"
  "http://www.w3.org/Graphics/SVG/1.1/DTD/svg11.dtd">
<svg xmlns:xlink="http://www.w3.org/1999/xlink" width="316.8pt" height="273.6pt" viewBox="0 0 316.8 273.6" xmlns="http://www.w3.org/2000/svg" version="1.1">
 <metadata>
  <rdf:RDF xmlns:dc="http://purl.org/dc/elements/1.1/" xmlns:cc="http://creativecommons.org/ns#" xmlns:rdf="http://www.w3.org/1999/02/22-rdf-syntax-ns#">
   <cc:Work>
    <dc:type rdf:resource="http://purl.org/dc/dcmitype/StillImage"/>
    <dc:date>2026-10-09T14:31:39.186195</dc:date>
    <dc:format>image/svg+xml</dc:format>
    <dc:creator>
     <cc:Agent>
      <dc:title>Matplotlib v3.11.2, https://matplotlib.org/</dc:title>
     </cc:Agent>
    </dc:creator>
   </cc:Work>
  </rdf:RDF>
 </metadata>
 <defs>
  <style type="text/css">*{stroke-linejoin: round; stroke-linecap: butt}</style>
 </defs>
 <g id="figure_1">
  <g id="patch_1">
   <path d="M 0 273.6 
L 316.8 273.6 
L 316.8 0 
L 0 0 
z
" style="fill: #ffffff"/>
  </g>
  <g id="axes_1">
   <g id="patch_2">
    <path d="M 58.387196 217.266733 
L 305.46 217.266733 
L 305.46 11.34 
L 58.387196 11.34 
z
" style="fill: #ffffff"/>
   </g>
   <g id="matplotlib.axis_1">
    <g id="xtick_1">
     <g id="line2d_1"/>
     <g id="text_1">
      <!-- 2026-08-01 -->
      <g style="fill: #898781" transform="translate(18.691703 258.186188) rotate(-30) scale(0.105 -0.105)">
       <defs>
        <path id="DejaVuSans-15" d="M 1228 531 
L 3431 531 
L 3431 0 
L 469 0 
L 469 531 
Q 828 903 1448 1529 
Q 2069 2156 2228 2338 
Q 2531 2678 2651 2914 
Q 2772 3150 2772 3378 
Q 2772 3750 2511 3984 
Q 2250 4219 1831 4219 
Q 1534 4219 1204 4116 
Q 875 4013 500 3803 
L 500 4441 
Q 881 4594 1212 4672 
Q 1544 4750 1819 4750 
Q 2544 4750 2975 4387 
Q 3406 4025 3406 3419 
Q 3406 3131 3298 2873 
Q 3191 2616 2906 2266 
Q 2828 2175 2409 1742 
Q 1991 1309 1228 531 
z
" transform="scale(0.015625)"/>
        <path id="DejaVuSans-13" d="M 2034 4250 
Q 1547 4250 1301 3770 
Q 1056 3291 1056 2328 
Q 1056 1369 1301 889 
Q 1547 409 2034 409 
Q 2525 409 2770 889 
Q 3016 1369 3016 2328 
Q 3016 3291 2770 3770 
Q 2525 4250 2034 4250 
z
M 2034 4750 
Q 2819 4750 3233 4129 
Q 3647 3509 3647 2328 
Q 3647 1150 3233 529 
Q 2819 -91 2034 -91 
Q 1250 -91 836 529 
Q 422 1150 422 2328 
Q 422 3509 836 4129 
Q 1250 4750 2034 4750 
z
" transform="scale(0.015625)"/>
        <path id="DejaVuSans-19" d="M 2113 2584 
Q 1688 2584 1439 2293 
Q 1191 2003 1191 1497 
Q 1191 994 1439 701 
Q 1688 409 2113 409 
Q 2538 409 2786 701 
Q 3034 994 3034 1497 
Q 3034 2003 2786 2293 
Q 2538 2584 2113 2584 
z
M 3366 4563 
L 3366 3988 
Q 3128 4100 2886 4159 
Q 2644 4219 2406 4219 
Q 1781 4219 1451 3797 
Q 1122 3375 1075 2522 
Q 1259 2794 1537 2939 
Q 1816 3084 2150 3084 
Q 2853 3084 3261 2657 
Q 3669 2231 3669 1497 
Q 3669 778 3244 343 
Q 2819 -91 2113 -91 
Q 1303 -91 875 529 
Q 447 1150 447 2328 
Q 447 3434 972 4092 
Q 1497 4750 2381 4750 
Q 2619 4750 2861 4703 
Q 3103 4656 3366 4563 
z
" transform="scale(0.015625)"/>
        <path id="DejaVuSans-10" d="M 313 2009 
L 1997 2009 
L 1997 1497 
L 313 1497 
L 313 2009 
z
" transform="scale(0.015625)"/>
        <path id="DejaVuSans-1b" d="M 2034 2216 
Q 1584 2216 1326 1975 
Q 1069 1734 1069 1313 
Q 1069 891 1326 650 
Q 1584 409 2034 409 
Q 2484 409 2743 651 
Q 3003 894 3003 1313 
Q 3003 1734 2745 1975 
Q 2488 2216 2034 2216 
z
M 1403 2484 
Q 997 2584 770 2862 
Q 544 3141 544 3541 
Q 544 4100 942 4425 
Q 1341 4750 2034 4750 
Q 2731 4750 3128 4425 
Q 3525 4100 3525 3541 
Q 3525 3141 3298 2862 
Q 3072 2584 2669 2484 
Q 3125 2378 3379 2068 
Q 3634 1759 3634 1313 
Q 3634 634 3220 271 
Q 2806 -91 2034 -91 
Q 1263 -91 848 271 
Q 434 634 434 1313 
Q 434 1759 690 2068 
Q 947 2378 1403 2484 
z
M 1172 3481 
Q 1172 3119 1398 2916 
Q 1625 2713 2034 2713 
Q 2441 2713 2670 2916 
Q 2900 3119 2900 3481 
Q 2900 3844 2670 4047 
Q 2441 4250 2034 4250 
Q 1625 4250 1398 4047 
Q 1172 3844 1172 3481 
z
" transform="scale(0.015625)"/>
        <path id="DejaVuSans-14" d="M 794 531 
L 1825 531 
L 1825 4091 
L 703 3866 
L 703 4441 
L 1819 4666 
L 2450 4666 
L 2450 531 
L 3481 531 
L 3481 0 
L 794 0 
L 794 531 
z
" transform="scale(0.015625)"/>
       </defs>
       <use xlink:href="#DejaVuSans-15"/>
       <use xlink:href="#DejaVuSans-13" transform="translate(63.625 0)"/>
       <use xlink:href="#DejaVuSans-15" transform="translate(127.25 0)"/>
       <use xlink:href="#DejaVuSans-19" transform="translate(190.875 0)"/>
       <use xlink:href="#DejaVuSans-10" transform="translate(254.5 0)"/>
       <use xlink:href="#DejaVuSans-13" transform="translate(290.578125 0)"/>
       <use xlink:href="#DejaVuSans-1b" transform="translate(354.203125 0)"/>
       <use xlink:href="#DejaVuSans-10" transform="translate(417.828125 0)"/>
       <use xlink:href="#DejaVuSans-13" transform="translate(453.90625 0)"/>
       <use xlink:href="#DejaVuSans-14" transform="translate(517.53125 0)"/>
      </g>
     </g>
    </g>
    <g id="xtick_2">
     <g id="line2d_2"/>
     <g id="text_2">
      <!-- 2026-08-15 -->
      <g style="fill: #898781" transform="translate(63.229108 258.186188) rotate(-30) scale(0.105 -0.105)">
       <defs>
        <path id="DejaVuSans-18" d="M 691 4666 
L 3169 4666 
L 3169 4134 
L 1269 4134 
L 1269 2991 
Q 1406 3038 1543 3061 
Q 1681 3084 1819 3084 
Q 2600 3084 3056 2656 
Q 3513 2228 3513 1497 
Q 3513 744 3044 326 
Q 2575 -91 1722 -91 
Q 1428 -91 1123 -41 
Q 819 9 494 109 
L 494 744 
Q 775 591 1075 516 
Q 1375 441 1709 441 
Q 2250 441 2565 725 
Q 2881 1009 2881 1497 
Q 2881 1984 2565 2268 
Q 2250 2553 1709 2553 
Q 1456 2553 1204 2497 
Q 953 2441 691 2322 
L 691 4666 
z
" transform="scale(0.015625)"/>
       </defs>
       <use xlink:href="#DejaVuSans-15"/>
       <use xlink:href="#DejaVuSans-13" transform="translate(63.625 0)"/>
       <use xlink:href="#DejaVuSans-15" transform="translate(127.25 0)"/>
       <use xlink:href="#DejaVuSans-19" transform="translate(190.875 0)"/>
       <use xlink:href="#DejaVuSans-10" transform="translate(254.5 0)"/>
       <use xlink:href="#DejaVuSans-13" transform="translate(290.578125 0)"/>
       <use xlink:href="#DejaVuSans-1b" transform="translate(354.203125 0)"/>
       <use xlink:href="#DejaVuSans-10" transform="translate(417.828125 0)"/>
       <use xlink:href="#DejaVuSans-14" transform="translate(453.90625 0)"/>
       <use xlink:href="#DejaVuSans-18" transform="translate(517.53125 0)"/>
      </g>
     </g>
    </g>
    <g id="xtick_3">
     <g id="line2d_3"/>
     <g id="text_3">
      <!-- 2026-09-01 -->
      <g style="fill: #898781" transform="translate(117.310242 258.186188) rotate(-30) scale(0.105 -0.105)">
       <defs>
        <path id="DejaVuSans-1c" d="M 703 97 
L 703 672 
Q 941 559 1184 500 
Q 1428 441 1663 441 
Q 2288 441 2617 861 
Q 2947 1281 2994 2138 
Q 2813 1869 2534 1725 
Q 2256 1581 1919 1581 
Q 1219 1581 811 2004 
Q 403 2428 403 3163 
Q 403 3881 828 4315 
Q 1253 4750 1959 4750 
Q 2769 4750 3195 4129 
Q 3622 3509 3622 2328 
Q 3622 1225 3098 567 
Q 2575 -91 1691 -91 
Q 1453 -91 1209 -44 
Q 966 3 703 97 
z
M 1959 2075 
Q 2384 2075 2632 2365 
Q 2881 2656 2881 3163 
Q 2881 3666 2632 3958 
Q 2384 4250 1959 4250 
Q 1534 4250 1286 3958 
Q 1038 3666 1038 3163 
Q 1038 2656 1286 2365 
Q 1534 2075 1959 2075 
z
" transform="scale(0.015625)"/>
       </defs>
       <use xlink:href="#DejaVuSans-15"/>
       <use xlink:href="#DejaVuSans-13" transform="translate(63.625 0)"/>
       <use xlink:href="#DejaVuSans-15" transform="translate(127.25 0)"/>
       <use xlink:href="#DejaVuSans-19" transform="translate(190.875 0)"/>
       <use xlink:href="#DejaVuSans-10" transform="translate(254.5 0)"/>
       <use xlink:href="#DejaVuSans-13" transform="translate(290.578125 0)"/>
       <use xlink:href="#DejaVuSans-1c" transform="translate(354.203125 0)"/>
       <use xlink:href="#DejaVuSans-10" transform="translate(417.828125 0)"/>
       <use xlink:href="#DejaVuSans-13" transform="translate(453.90625 0)"/>
       <use xlink:href="#DejaVuSans-14" transform="translate(517.53125 0)"/>
      </g>
     </g>
    </g>
    <g id="xtick_4">
     <g id="line2d_4"/>
     <g id="text_4">
      <!-- 2026-09-15 -->
      <g style="fill: #898781" transform="translate(161.847647 258.186188) rotate(-30) scale(0.105 -0.105)">
       <use xlink:href="#DejaVuSans-15"/>
       <use xlink:href="#DejaVuSans-13" transform="translate(63.625 0)"/>
       <use xlink:href="#DejaVuSans-15" transform="translate(127.25 0)"/>
       <use xlink:href="#DejaVuSans-19" transform="translate(190.875 0)"/>
       <use xlink:href="#DejaVuSans-10" transform="translate(254.5 0)"/>
       <use xlink:href="#DejaVuSans-13" transform="translate(290.578125 0)"/>
       <use xlink:href="#DejaVuSans-1c" transform="translate(354.203125 0)"/>
       <use xlink:href="#DejaVuSans-10" transform="translate(417.828125 0)"/>
       <use xlink:href="#DejaVuSans-14" transform="translate(453.90625 0)"/>
       <use xlink:href="#DejaVuSans-18" transform="translate(517.53125 0)"/>
      </g>
     </g>
    </g>
    <g id="xtick_5">
     <g id="line2d_5"/>
     <g id="text_5">
      <!-- 2026-10-01 -->
      <g style="fill: #898781" transform="translate(212.747539 258.186188) rotate(-30) scale(0.105 -0.105)">
       <use xlink:href="#DejaVuSans-15"/>
       <use xlink:href="#DejaVuSans-13" transform="translate(63.625 0)"/>
       <use xlink:href="#DejaVuSans-15" transform="translate(127.25 0)"/>
       <use xlink:href="#DejaVuSans-19" transform="translate(190.875 0)"/>
       <use xlink:href="#DejaVuSans-10" transform="translate(254.5 0)"/>
       <use xlink:href="#DejaVuSans-14" transform="translate(290.578125 0)"/>
       <use xlink:href="#DejaVuSans-13" transform="translate(354.203125 0)"/>
       <use xlink:href="#DejaVuSans-10" transform="translate(417.828125 0)"/>
       <use xlink:href="#DejaVuSans-13" transform="translate(453.90625 0)"/>
       <use xlink:href="#DejaVuSans-14" transform="translate(517.53125 0)"/>
      </g>
     </g>
    </g>
   </g>
   <g id="matplotlib.axis_2">
    <g id="ytick_1">
     <g id="line2d_6">
      <path d="M 58.387196 205.05758 
L 305.46 205.05758 
" clip-path="url(#p74f65e4547)" style="fill: none; stroke: #e1e0d9; stroke-width: 0.8; stroke-linecap: square"/>
     </g>
     <g id="line2d_7"/>
     <g id="text_6">
      <!-- 6% -->
      <g style="fill: #898781" transform="translate(38.229931 209.046349) scale(0.105 -0.105)">
       <defs>
        <path id="DejaVuSans-8" d="M 4653 2053 
Q 4381 2053 4226 1822 
Q 4072 1591 4072 1178 
Q 4072 772 4226 539 
Q 4381 306 4653 306 
Q 4919 306 5073 539 
Q 5228 772 5228 1178 
Q 5228 1588 5073 1820 
Q 4919 2053 4653 2053 
z
M 4653 2450 
Q 5147 2450 5437 2106 
Q 5728 1763 5728 1178 
Q 5728 594 5436 251 
Q 5144 -91 4653 -91 
Q 4153 -91 3862 251 
Q 3572 594 3572 1178 
Q 3572 1766 3864 2108 
Q 4156 2450 4653 2450 
z
M 1428 4353 
Q 1159 4353 1004 4120 
Q 850 3888 850 3481 
Q 850 3069 1003 2837 
Q 1156 2606 1428 2606 
Q 1700 2606 1854 2837 
Q 2009 3069 2009 3481 
Q 2009 3884 1853 4118 
Q 1697 4353 1428 4353 
z
M 4250 4750 
L 4750 4750 
L 1831 -91 
L 1331 -91 
L 4250 4750 
z
M 1428 4750 
Q 1922 4750 2215 4408 
Q 2509 4066 2509 3481 
Q 2509 2891 2217 2550 
Q 1925 2209 1428 2209 
Q 931 2209 642 2551 
Q 353 2894 353 3481 
Q 353 4063 643 4406 
Q 934 4750 1428 4750 
z
" transform="scale(0.015625)"/>
       </defs>
       <use xlink:href="#DejaVuSans-19"/>
       <use xlink:href="#DejaVuSans-8" transform="translate(63.625 0)"/>
      </g>
     </g>
    </g>
    <g id="ytick_2">
     <g id="line2d_8">
      <path d="M 58.387196 176.606191 
L 305.46 176.606191 
" clip-path="url(#p74f65e4547)" style="fill: none; stroke: #e1e0d9; stroke-width: 0.8; stroke-linecap: square"/>
     </g>
     <g id="line2d_9"/>
     <g id="text_7">
      <!-- 7% -->
      <g style="fill: #898781" transform="translate(38.229931 180.594961) scale(0.105 -0.105)">
       <defs>
        <path id="DejaVuSans-1a" d="M 525 4666 
L 3525 4666 
L 3525 4397 
L 1831 0 
L 1172 0 
L 2766 4134 
L 525 4134 
L 525 4666 
z
" transform="scale(0.015625)"/>
       </defs>
       <use xlink:href="#DejaVuSans-1a"/>
       <use xlink:href="#DejaVuSans-8" transform="translate(63.625 0)"/>
      </g>
     </g>
    </g>
    <g id="ytick_3">
     <g id="line2d_10">
      <path d="M 58.387196 148.154803 
L 305.46 148.154803 
" clip-path="url(#p74f65e4547)" style="fill: none; stroke: #e1e0d9; stroke-width: 0.8; stroke-linecap: square"/>
     </g>
     <g id="line2d_11"/>
     <g id="text_8">
      <!-- 8% -->
      <g style="fill: #898781" transform="translate(38.229931 152.143573) scale(0.105 -0.105)">
       <use xlink:href="#DejaVuSans-1b"/>
       <use xlink:href="#DejaVuSans-8" transform="translate(63.625 0)"/>
      </g>
     </g>
    </g>
    <g id="ytick_4">
     <g id="line2d_12">
      <path d="M 58.387196 119.703415 
L 305.46 119.703415 
" clip-path="url(#p74f65e4547)" style="fill: none; stroke: #e1e0d9; stroke-width: 0.8; stroke-linecap: square"/>
     </g>
     <g id="line2d_13"/>
     <g id="text_9">
      <!-- 9% -->
      <g style="fill: #898781" transform="translate(38.229931 123.692184) scale(0.105 -0.105)">
       <use xlink:href="#DejaVuSans-1c"/>
       <use xlink:href="#DejaVuSans-8" transform="translate(63.625 0)"/>
      </g>
     </g>
    </g>
    <g id="ytick_5">
     <g id="line2d_14">
      <path d="M 58.387196 91.252027 
L 305.46 91.252027 
" clip-path="url(#p74f65e4547)" style="fill: none; stroke: #e1e0d9; stroke-width: 0.8; stroke-linecap: square"/>
     </g>
     <g id="line2d_15"/>
     <g id="text_10">
      <!-- 10% -->
      <g style="fill: #898781" transform="translate(31.549306 95.240796) scale(0.105 -0.105)">
       <use xlink:href="#DejaVuSans-14"/>
       <use xlink:href="#DejaVuSans-13" transform="translate(63.625 0)"/>
       <use xlink:href="#DejaVuSans-8" transform="translate(127.25 0)"/>
      </g>
     </g>
    </g>
    <g id="ytick_6">
     <g id="line2d_16">
      <path d="M 58.387196 62.800638 
L 305.46 62.800638 
" clip-path="url(#p74f65e4547)" style="fill: none; stroke: #e1e0d9; stroke-width: 0.8; stroke-linecap: square"/>
     </g>
     <g id="line2d_17"/>
     <g id="text_11">
      <!-- 11% -->
      <g style="fill: #898781" transform="translate(31.549306 66.789408) scale(0.105 -0.105)">
       <use xlink:href="#DejaVuSans-14"/>
       <use xlink:href="#DejaVuSans-14" transform="translate(63.625 0)"/>
       <use xlink:href="#DejaVuSans-8" transform="translate(127.25 0)"/>
      </g>
     </g>
    </g>
    <g id="ytick_7">
     <g id="line2d_18">
      <path d="M 58.387196 34.34925 
L 305.46 34.34925 
" clip-path="url(#p74f65e4547)" style="fill: none; stroke: #e1e0d9; stroke-width: 0.8; stroke-linecap: square"/>
     </g>
     <g id="line2d_19"/>
     <g id="text_12">
      <!-- 12% -->
      <g style="fill: #898781" transform="translate(31.549306 38.33802) scale(0.105 -0.105)">
       <use xlink:href="#DejaVuSans-14"/>
       <use xlink:href="#DejaVuSans-15" transform="translate(63.625 0)"/>
       <use xlink:href="#DejaVuSans-8" transform="translate(127.25 0)"/>
      </g>
     </g>
    </g>
   </g>
   <g id="line2d_20">
    <path d="M 72.798985 30.453168 
L 82.342714 24.680968 
L 85.523958 23.575194 
L 88.705201 22.615344 
L 91.886444 21.24391 
L 95.067687 20.700306 
L 98.24893 22.64328 
L 101.430174 24.771339 
L 104.611417 27.005805 
L 107.79266 29.419009 
L 110.973903 31.943035 
L 114.155146 33.65539 
L 117.33639 35.414754 
L 120.517633 37.917772 
L 123.698876 40.447584 
L 126.880119 42.973575 
L 130.061362 45.499906 
L 133.242606 48.052689 
L 136.423849 50.696134 
L 139.605092 53.131527 
L 142.786335 55.120409 
L 145.967578 57.180791 
L 149.148822 59.349421 
L 152.330065 61.55449 
L 155.511308 62.655129 
L 158.692551 62.030406 
L 161.873795 61.087417 
L 165.055038 61.657542 
L 168.236281 62.77374 
L 171.417524 63.146695 
L 174.598767 63.498111 
L 177.780011 66.022237 
L 180.961254 67.002214 
L 184.142497 67.880913 
L 187.32374 69.158231 
L 190.504983 69.926787 
L 193.686227 70.446329 
L 196.86747 70.818415 
L 200.048713 71.119132 
L 203.229956 71.119325 
L 206.411199 71.01554 
L 215.954929 73.554856 
L 219.136172 74.366379 
L 222.317415 75.174412 
L 225.498659 75.68295 
L 228.679902 76.075175 
L 231.861145 76.373943 
L 235.042388 76.837049 
L 238.223631 77.187577 
L 241.404875 77.495295 
L 244.586118 78.095432 
L 247.592834 78.473822 
L 247.767361 78.741305 
L 248.888307 78.860969 
L 249.104809 78.836253 
L 249.142365 78.813247 
L 249.189642 78.784311 
L 249.20113 78.777284 
L 249.224989 78.762695 
L 249.242221 78.752164 
L 249.266964 78.737048 
L 249.314241 78.708188 
L 249.32617 78.70091 
L 249.332356 78.697137 
L 249.345611 78.689054 
L 250.948604 77.949919 
L 251.186314 77.804907 
L 252.584735 76.983625 
L 254.129847 76.210215 
L 254.347674 76.08221 
L 255.882624 75.275496 
L 257.311091 74.649939 
L 257.554986 74.530845 
L 259.4032 73.740519 
L 260.492334 73.471741 
L 260.844922 73.384645 
L 262.381639 73.046246 
L 263.673577 72.761083 
L 263.971819 72.695182 
L 265.541232 71.752004 
L 266.85482 70.775605 
L 267.157922 70.566579 
L 268.802006 70.170392 
L 270.036063 70.126205 
L 270.355513 70.145872 
L 271.89444 70.28396 
L 273.217307 70.28847 
L 273.508921 70.315934 
L 274.898505 70.466166 
L 276.39855 70.415971 
L 276.771904 70.450383 
L 278.173418 70.590768 
L 279.579793 70.49478 
L 279.876267 70.52254 
L 281.742155 70.976877 
L 282.761036 71.043371 
L 283.185202 71.16381 
L 284.670666 71.596065 
L 285.942279 71.758983 
L 286.283379 71.855011 
L 287.886814 72.309609 
L 289.123523 72.401522 
L 289.497761 72.506771 
L 291.084406 72.675272 
L 292.304766 72.239763 
L 292.705072 72.195905 
L 294.229418 72.050318 
" clip-path="url(#p74f65e4547)" style="fill: none; stroke: #2a78d6; stroke-width: 2.4; stroke-linecap: square"/>
   </g>
   <g id="line2d_21">
    <path d="M 69.617778 34.393617 
L 72.799022 29.026429 
L 75.980265 27.886046 
L 79.161508 26.711149 
L 82.342751 25.640536 
L 85.523994 24.735502 
L 88.705238 22.946549 
L 91.886481 22.465289 
L 95.067724 24.705485 
L 98.248967 27.131631 
L 101.43021 29.82536 
L 104.611454 32.656231 
L 107.792697 35.740569 
L 110.97394 37.526794 
L 114.155183 38.251534 
L 117.336426 39.511629 
L 120.51767 41.838412 
L 123.698913 44.139752 
L 126.880156 44.747938 
L 130.061399 47.179877 
L 133.242643 49.547831 
L 136.423886 50.265956 
L 139.605129 52.065795 
L 142.786372 54.043204 
L 145.967615 55.997108 
L 149.148859 56.938749 
L 152.330102 59.20293 
L 155.511345 59.362017 
L 158.692588 59.320493 
L 161.873831 60.072652 
L 165.055075 61.31303 
L 168.236318 62.539146 
L 171.417561 64.38801 
L 174.598804 65.512623 
L 177.780047 67.443781 
L 180.961291 68.67623 
L 184.142534 70.555078 
L 187.323777 71.596967 
L 190.50502 72.287872 
L 193.686263 72.80387 
L 196.867507 73.215223 
L 200.04875 73.280073 
L 203.229993 73.232006 
L 206.411236 74.005033 
L 209.592479 74.946542 
L 212.773723 75.801024 
L 215.954966 76.609531 
L 219.136209 77.384893 
L 222.317452 77.481855 
L 225.498695 77.771251 
L 228.679939 78.047984 
L 231.861182 78.380485 
L 235.042425 78.492179 
L 238.223668 78.722761 
L 241.404911 79.340713 
L 244.586155 79.722045 
L 247.767398 82.057741 
L 250.948641 81.807087 
L 254.129884 81.317425 
L 257.311127 80.938354 
L 260.492371 81.701735 
L 263.673614 81.236124 
L 266.854857 82.324385 
L 270.0361 82.969434 
L 273.217343 83.696259 
L 276.398587 83.863366 
L 279.57983 84.035147 
L 282.761073 84.444345 
L 285.942316 84.483126 
L 289.123559 83.480248 
L 292.304803 82.993665 
" clip-path="url(#p74f65e4547)" style="fill: none; stroke-dasharray: 1.6,2.64; stroke-dashoffset: 0; stroke: #a8a79f; stroke-width: 1.6"/>
   </g>
   <g id="line2d_22">
    <path d="M 69.617778 207.906427 
L 72.799022 203.685108 
L 75.980265 201.431769 
L 79.161508 199.160746 
L 82.342751 196.858047 
L 85.523994 194.540503 
L 88.705238 191.725663 
L 91.886481 189.394978 
L 95.067724 188.269452 
L 98.248967 187.275654 
L 101.43021 186.342537 
L 104.611454 185.519857 
L 107.792697 184.804725 
L 110.97394 183.443329 
L 114.155183 181.638469 
L 117.336426 180.103516 
L 120.51767 179.179808 
L 123.698913 178.268372 
L 126.880156 176.420762 
L 130.061399 175.611067 
L 133.242643 174.80038 
L 136.423886 172.995147 
L 139.605129 171.844596 
L 142.786372 170.77174 
L 145.967615 169.76095 
L 149.148859 168.058148 
L 152.330102 167.194743 
L 155.511345 166.387632 
L 158.692588 165.508451 
L 161.873831 165.262863 
L 165.055075 165.338575 
L 168.236318 165.415621 
L 171.417561 165.873767 
L 174.598804 165.86622 
L 177.780047 166.45321 
L 180.961291 166.612126 
L 184.142534 167.241689 
L 187.323777 167.467429 
L 190.50502 167.541184 
L 193.686263 167.48491 
L 196.867507 167.484805 
L 200.04875 167.26383 
L 203.229993 166.986274 
L 206.411236 167.205347 
L 209.592479 167.397195 
L 212.773723 167.558035 
L 215.954966 167.688458 
L 219.136209 167.801973 
L 222.317452 167.47664 
L 225.498695 167.312461 
L 228.679939 167.124655 
L 231.861182 167.016136 
L 235.042425 166.76112 
L 238.223668 166.630842 
L 241.404911 166.685268 
L 244.586155 166.603674 
L 247.767398 168.497149 
L 250.948641 169.343693 
L 254.129884 169.976762 
L 257.311127 170.652085 
L 260.492371 172.037369 
L 263.673614 172.93349 
L 266.854857 175.227606 
L 270.0361 177.113016 
L 273.217343 178.879653 
L 276.398587 180.315604 
L 279.57983 181.59857 
L 282.761073 182.781423 
L 285.942316 183.715883 
L 289.123559 183.988379 
L 292.304803 184.21248 
" clip-path="url(#p74f65e4547)" style="fill: none; stroke: #52514e; stroke-width: 1.3; stroke-linecap: square"/>
   </g>
   <g id="patch_3">
    <path d="M 58.387196 217.266733 
L 305.46 217.266733 
" style="fill: none; stroke: #c3c2b7; stroke-width: 0.8; stroke-linejoin: miter; stroke-linecap: square"/>
   </g>
   <g id="legend_1">
    <g id="line2d_23">
     <path d="M 130.237031 99.990906 
L 139.237031 99.990906 
L 148.237031 99.990906 
" style="fill: none; stroke: #2a78d6; stroke-width: 2.4; stroke-linecap: square"/>
    </g>
    <g id="text_13">
     <!-- strUSD, measured (share price) -->
     <g style="fill: #0b0b0b" transform="translate(155.437031 103.140906) scale(0.09 -0.09)">
      <defs>
       <path id="DejaVuSans-56" d="M 2834 3397 
L 2834 2853 
Q 2591 2978 2328 3040 
Q 2066 3103 1784 3103 
Q 1356 3103 1142 2972 
Q 928 2841 928 2578 
Q 928 2378 1081 2264 
Q 1234 2150 1697 2047 
L 1894 2003 
Q 2506 1872 2764 1633 
Q 3022 1394 3022 966 
Q 3022 478 2636 193 
Q 2250 -91 1575 -91 
Q 1294 -91 989 -36 
Q 684 19 347 128 
L 347 722 
Q 666 556 975 473 
Q 1284 391 1588 391 
Q 1994 391 2212 530 
Q 2431 669 2431 922 
Q 2431 1156 2273 1281 
Q 2116 1406 1581 1522 
L 1381 1569 
Q 847 1681 609 1914 
Q 372 2147 372 2553 
Q 372 3047 722 3315 
Q 1072 3584 1716 3584 
Q 2034 3584 2315 3537 
Q 2597 3491 2834 3397 
z
" transform="scale(0.015625)"/>
       <path id="DejaVuSans-57" d="M 1172 4494 
L 1172 3500 
L 2356 3500 
L 2356 3053 
L 1172 3053 
L 1172 1153 
Q 1172 725 1289 603 
Q 1406 481 1766 481 
L 2356 481 
L 2356 0 
L 1766 0 
Q 1100 0 847 248 
Q 594 497 594 1153 
L 594 3053 
L 172 3053 
L 172 3500 
L 594 3500 
L 594 4494 
L 1172 4494 
z
" transform="scale(0.015625)"/>
       <path id="DejaVuSans-55" d="M 2631 2963 
Q 2534 3019 2420 3045 
Q 2306 3072 2169 3072 
Q 1681 3072 1420 2755 
Q 1159 2438 1159 1844 
L 1159 0 
L 581 0 
L 581 3500 
L 1159 3500 
L 1159 2956 
Q 1341 3275 1631 3429 
Q 1922 3584 2338 3584 
Q 2397 3584 2469 3576 
Q 2541 3569 2628 3553 
L 2631 2963 
z
" transform="scale(0.015625)"/>
       <path id="DejaVuSans-38" d="M 556 4666 
L 1191 4666 
L 1191 1831 
Q 1191 1081 1462 751 
Q 1734 422 2344 422 
Q 2950 422 3222 751 
Q 3494 1081 3494 1831 
L 3494 4666 
L 4128 4666 
L 4128 1753 
Q 4128 841 3676 375 
Q 3225 -91 2344 -91 
Q 1459 -91 1007 375 
Q 556 841 556 1753 
L 556 4666 
z
" transform="scale(0.015625)"/>
       <path id="DejaVuSans-36" d="M 3425 4513 
L 3425 3897 
Q 3066 4069 2747 4153 
Q 2428 4238 2131 4238 
Q 1616 4238 1336 4038 
Q 1056 3838 1056 3469 
Q 1056 3159 1242 3001 
Q 1428 2844 1947 2747 
L 2328 2669 
Q 3034 2534 3370 2195 
Q 3706 1856 3706 1288 
Q 3706 609 3251 259 
Q 2797 -91 1919 -91 
Q 1588 -91 1214 -16 
Q 841 59 441 206 
L 441 856 
Q 825 641 1194 531 
Q 1563 422 1919 422 
Q 2459 422 2753 634 
Q 3047 847 3047 1241 
Q 3047 1584 2836 1778 
Q 2625 1972 2144 2069 
L 1759 2144 
Q 1053 2284 737 2584 
Q 422 2884 422 3419 
Q 422 4038 858 4394 
Q 1294 4750 2059 4750 
Q 2388 4750 2728 4690 
Q 3069 4631 3425 4513 
z
" transform="scale(0.015625)"/>
       <path id="DejaVuSans-27" d="M 1259 4147 
L 1259 519 
L 2022 519 
Q 2988 519 3436 956 
Q 3884 1394 3884 2338 
Q 3884 3275 3436 3711 
Q 2988 4147 2022 4147 
L 1259 4147 
z
M 628 4666 
L 1925 4666 
Q 3281 4666 3915 4102 
Q 4550 3538 4550 2338 
Q 4550 1131 3912 565 
Q 3275 0 1925 0 
L 628 0 
L 628 4666 
z
" transform="scale(0.015625)"/>
       <path id="DejaVuSans-f" d="M 750 794 
L 1409 794 
L 1409 256 
L 897 -744 
L 494 -744 
L 750 256 
L 750 794 
z
" transform="scale(0.015625)"/>
       <path id="DejaVuSans-3" transform="scale(0.015625)"/>
       <path id="DejaVuSans-50" d="M 3328 2828 
Q 3544 3216 3844 3400 
Q 4144 3584 4550 3584 
Q 5097 3584 5394 3201 
Q 5691 2819 5691 2113 
L 5691 0 
L 5113 0 
L 5113 2094 
Q 5113 2597 4934 2840 
Q 4756 3084 4391 3084 
Q 3944 3084 3684 2787 
Q 3425 2491 3425 1978 
L 3425 0 
L 2847 0 
L 2847 2094 
Q 2847 2600 2669 2842 
Q 2491 3084 2119 3084 
Q 1678 3084 1418 2786 
Q 1159 2488 1159 1978 
L 1159 0 
L 581 0 
L 581 3500 
L 1159 3500 
L 1159 2956 
Q 1356 3278 1631 3431 
Q 1906 3584 2284 3584 
Q 2666 3584 2933 3390 
Q 3200 3197 3328 2828 
z
" transform="scale(0.015625)"/>
       <path id="DejaVuSans-48" d="M 3597 1894 
L 3597 1613 
L 953 1613 
Q 991 1019 1311 708 
Q 1631 397 2203 397 
Q 2534 397 2845 478 
Q 3156 559 3463 722 
L 3463 178 
Q 3153 47 2828 -22 
Q 2503 -91 2169 -91 
Q 1331 -91 842 396 
Q 353 884 353 1716 
Q 353 2575 817 3079 
Q 1281 3584 2069 3584 
Q 2775 3584 3186 3129 
Q 3597 2675 3597 1894 
z
M 3022 2063 
Q 3016 2534 2758 2815 
Q 2500 3097 2075 3097 
Q 1594 3097 1305 2825 
Q 1016 2553 972 2059 
L 3022 2063 
z
" transform="scale(0.015625)"/>
       <path id="DejaVuSans-44" d="M 2194 1759 
Q 1497 1759 1228 1600 
Q 959 1441 959 1056 
Q 959 750 1161 570 
Q 1363 391 1709 391 
Q 2188 391 2477 730 
Q 2766 1069 2766 1631 
L 2766 1759 
L 2194 1759 
z
M 3341 1997 
L 3341 0 
L 2766 0 
L 2766 531 
Q 2569 213 2275 61 
Q 1981 -91 1556 -91 
Q 1019 -91 701 211 
Q 384 513 384 1019 
Q 384 1609 779 1909 
Q 1175 2209 1959 2209 
L 2766 2209 
L 2766 2266 
Q 2766 2663 2505 2880 
Q 2244 3097 1772 3097 
Q 1472 3097 1187 3025 
Q 903 2953 641 2809 
L 641 3341 
Q 956 3463 1253 3523 
Q 1550 3584 1831 3584 
Q 2591 3584 2966 3190 
Q 3341 2797 3341 1997 
z
" transform="scale(0.015625)"/>
       <path id="DejaVuSans-58" d="M 544 1381 
L 544 3500 
L 1119 3500 
L 1119 1403 
Q 1119 906 1312 657 
Q 1506 409 1894 409 
Q 2359 409 2629 706 
Q 2900 1003 2900 1516 
L 2900 3500 
L 3475 3500 
L 3475 0 
L 2900 0 
L 2900 538 
Q 2691 219 2414 64 
Q 2138 -91 1772 -91 
Q 1169 -91 856 284 
Q 544 659 544 1381 
z
M 1991 3584 
L 1991 3584 
z
" transform="scale(0.015625)"/>
       <path id="DejaVuSans-47" d="M 2906 2969 
L 2906 4863 
L 3481 4863 
L 3481 0 
L 2906 0 
L 2906 525 
Q 2725 213 2448 61 
Q 2172 -91 1784 -91 
Q 1150 -91 751 415 
Q 353 922 353 1747 
Q 353 2572 751 3078 
Q 1150 3584 1784 3584 
Q 2172 3584 2448 3432 
Q 2725 3281 2906 2969 
z
M 947 1747 
Q 947 1113 1208 752 
Q 1469 391 1925 391 
Q 2381 391 2643 752 
Q 2906 1113 2906 1747 
Q 2906 2381 2643 2742 
Q 2381 3103 1925 3103 
Q 1469 3103 1208 2742 
Q 947 2381 947 1747 
z
" transform="scale(0.015625)"/>
       <path id="DejaVuSans-b" d="M 1984 4856 
Q 1566 4138 1362 3434 
Q 1159 2731 1159 2009 
Q 1159 1288 1364 580 
Q 1569 -128 1984 -844 
L 1484 -844 
Q 1016 -109 783 600 
Q 550 1309 550 2009 
Q 550 2706 781 3412 
Q 1013 4119 1484 4856 
L 1984 4856 
z
" transform="scale(0.015625)"/>
       <path id="DejaVuSans-4b" d="M 3513 2113 
L 3513 0 
L 2938 0 
L 2938 2094 
Q 2938 2591 2744 2837 
Q 2550 3084 2163 3084 
Q 1697 3084 1428 2787 
Q 1159 2491 1159 1978 
L 1159 0 
L 581 0 
L 581 4863 
L 1159 4863 
L 1159 2956 
Q 1366 3272 1645 3428 
Q 1925 3584 2291 3584 
Q 2894 3584 3203 3211 
Q 3513 2838 3513 2113 
z
" transform="scale(0.015625)"/>
       <path id="DejaVuSans-53" d="M 1159 525 
L 1159 -1331 
L 581 -1331 
L 581 3500 
L 1159 3500 
L 1159 2969 
Q 1341 3281 1617 3432 
Q 1894 3584 2278 3584 
Q 2916 3584 3314 3078 
Q 3713 2572 3713 1747 
Q 3713 922 3314 415 
Q 2916 -91 2278 -91 
Q 1894 -91 1617 61 
Q 1341 213 1159 525 
z
M 3116 1747 
Q 3116 2381 2855 2742 
Q 2594 3103 2138 3103 
Q 1681 3103 1420 2742 
Q 1159 2381 1159 1747 
Q 1159 1113 1420 752 
Q 1681 391 2138 391 
Q 2594 391 2855 752 
Q 3116 1113 3116 1747 
z
" transform="scale(0.015625)"/>
       <path id="DejaVuSans-4c" d="M 603 3500 
L 1178 3500 
L 1178 0 
L 603 0 
L 603 3500 
z
M 603 4863 
L 1178 4863 
L 1178 4134 
L 603 4134 
L 603 4863 
z
" transform="scale(0.015625)"/>
       <path id="DejaVuSans-46" d="M 3122 3366 
L 3122 2828 
Q 2878 2963 2633 3030 
Q 2388 3097 2138 3097 
Q 1578 3097 1268 2742 
Q 959 2388 959 1747 
Q 959 1106 1268 751 
Q 1578 397 2138 397 
Q 2388 397 2633 464 
Q 2878 531 3122 666 
L 3122 134 
Q 2881 22 2623 -34 
Q 2366 -91 2075 -91 
Q 1284 -91 818 406 
Q 353 903 353 1747 
Q 353 2603 823 3093 
Q 1294 3584 2113 3584 
Q 2378 3584 2631 3529 
Q 2884 3475 3122 3366 
z
" transform="scale(0.015625)"/>
       <path id="DejaVuSans-c" d="M 513 4856 
L 1013 4856 
Q 1481 4119 1714 3412 
Q 1947 2706 1947 2009 
Q 1947 1309 1714 600 
Q 1481 -109 1013 -844 
L 513 -844 
Q 928 -128 1133 580 
Q 1338 1288 1338 2009 
Q 1338 2731 1133 3434 
Q 928 4138 513 4856 
z
" transform="scale(0.015625)"/>
      </defs>
      <use xlink:href="#DejaVuSans-56"/>
      <use xlink:href="#DejaVuSans-57" transform="translate(52.09375 0)"/>
      <use xlink:href="#DejaVuSans-55" transform="translate(91.296875 0)"/>
      <use xlink:href="#DejaVuSans-38" transform="translate(132.40625 0)"/>
      <use xlink:href="#DejaVuSans-36" transform="translate(205.59375 0)"/>
      <use xlink:href="#DejaVuSans-27" transform="translate(269.078125 0)"/>
      <use xlink:href="#DejaVuSans-f" transform="translate(346.078125 0)"/>
      <use xlink:href="#DejaVuSans-3" transform="translate(377.859375 0)"/>
      <use xlink:href="#DejaVuSans-50" transform="translate(409.640625 0)"/>
      <use xlink:href="#DejaVuSans-48" transform="translate(507.046875 0)"/>
      <use xlink:href="#DejaVuSans-44" transform="translate(568.578125 0)"/>
      <use xlink:href="#DejaVuSans-56" transform="translate(629.859375 0)"/>
      <use xlink:href="#DejaVuSans-58" transform="translate(681.953125 0)"/>
      <use xlink:href="#DejaVuSans-55" transform="translate(745.328125 0)"/>
      <use xlink:href="#DejaVuSans-48" transform="translate(784.234375 0)"/>
      <use xlink:href="#DejaVuSans-47" transform="translate(845.765625 0)"/>
      <use xlink:href="#DejaVuSans-3" transform="translate(909.25 0)"/>
      <use xlink:href="#DejaVuSans-b" transform="translate(941.03125 0)"/>
      <use xlink:href="#DejaVuSans-56" transform="translate(980.046875 0)"/>
      <use xlink:href="#DejaVuSans-4b" transform="translate(1032.140625 0)"/>
      <use xlink:href="#DejaVuSans-44" transform="translate(1095.515625 0)"/>
      <use xlink:href="#DejaVuSans-55" transform="translate(1156.796875 0)"/>
      <use xlink:href="#DejaVuSans-48" transform="translate(1195.703125 0)"/>
      <use xlink:href="#DejaVuSans-3" transform="translate(1257.234375 0)"/>
      <use xlink:href="#DejaVuSans-53" transform="translate(1289.015625 0)"/>
      <use xlink:href="#DejaVuSans-55" transform="translate(1352.5 0)"/>
      <use xlink:href="#DejaVuSans-4c" transform="translate(1393.609375 0)"/>
      <use xlink:href="#DejaVuSans-46" transform="translate(1421.390625 0)"/>
      <use xlink:href="#DejaVuSans-48" transform="translate(1476.375 0)"/>
      <use xlink:href="#DejaVuSans-c" transform="translate(1537.90625 0)"/>
     </g>
    </g>
    <g id="line2d_24">
     <path d="M 130.237031 113.491609 
L 139.237031 113.491609 
L 148.237031 113.491609 
" style="fill: none; stroke-dasharray: 1.6,2.64; stroke-dashoffset: 0; stroke: #a8a79f; stroke-width: 1.6"/>
    </g>
    <g id="text_14">
     <!-- book yield / staked share -->
     <g style="fill: #0b0b0b" transform="translate(155.437031 116.641609) scale(0.09 -0.09)">
      <defs>
       <path id="DejaVuSans-45" d="M 3116 1747 
Q 3116 2381 2855 2742 
Q 2594 3103 2138 3103 
Q 1681 3103 1420 2742 
Q 1159 2381 1159 1747 
Q 1159 1113 1420 752 
Q 1681 391 2138 391 
Q 2594 391 2855 752 
Q 3116 1113 3116 1747 
z
M 1159 2969 
Q 1341 3281 1617 3432 
Q 1894 3584 2278 3584 
Q 2916 3584 3314 3078 
Q 3713 2572 3713 1747 
Q 3713 922 3314 415 
Q 2916 -91 2278 -91 
Q 1894 -91 1617 61 
Q 1341 213 1159 525 
L 1159 0 
L 581 0 
L 581 4863 
L 1159 4863 
L 1159 2969 
z
" transform="scale(0.015625)"/>
       <path id="DejaVuSans-52" d="M 1959 3097 
Q 1497 3097 1228 2736 
Q 959 2375 959 1747 
Q 959 1119 1226 758 
Q 1494 397 1959 397 
Q 2419 397 2687 759 
Q 2956 1122 2956 1747 
Q 2956 2369 2687 2733 
Q 2419 3097 1959 3097 
z
M 1959 3584 
Q 2709 3584 3137 3096 
Q 3566 2609 3566 1747 
Q 3566 888 3137 398 
Q 2709 -91 1959 -91 
Q 1206 -91 779 398 
Q 353 888 353 1747 
Q 353 2609 779 3096 
Q 1206 3584 1959 3584 
z
" transform="scale(0.015625)"/>
       <path id="DejaVuSans-4e" d="M 581 4863 
L 1159 4863 
L 1159 1991 
L 2875 3500 
L 3609 3500 
L 1753 1863 
L 3688 0 
L 2938 0 
L 1159 1709 
L 1159 0 
L 581 0 
L 581 4863 
z
" transform="scale(0.015625)"/>
       <path id="DejaVuSans-5c" d="M 2059 -325 
Q 1816 -950 1584 -1140 
Q 1353 -1331 966 -1331 
L 506 -1331 
L 506 -850 
L 844 -850 
Q 1081 -850 1212 -737 
Q 1344 -625 1503 -206 
L 1606 56 
L 191 3500 
L 800 3500 
L 1894 763 
L 2988 3500 
L 3597 3500 
L 2059 -325 
z
" transform="scale(0.015625)"/>
       <path id="DejaVuSans-4f" d="M 603 4863 
L 1178 4863 
L 1178 0 
L 603 0 
L 603 4863 
z
" transform="scale(0.015625)"/>
       <path id="DejaVuSans-12" d="M 1625 4666 
L 2156 4666 
L 531 -594 
L 0 -594 
L 1625 4666 
z
" transform="scale(0.015625)"/>
      </defs>
      <use xlink:href="#DejaVuSans-45"/>
      <use xlink:href="#DejaVuSans-52" transform="translate(63.484375 0)"/>
      <use xlink:href="#DejaVuSans-52" transform="translate(124.671875 0)"/>
      <use xlink:href="#DejaVuSans-4e" transform="translate(185.859375 0)"/>
      <use xlink:href="#DejaVuSans-3" transform="translate(243.765625 0)"/>
      <use xlink:href="#DejaVuSans-5c" transform="translate(275.546875 0)"/>
      <use xlink:href="#DejaVuSans-4c" transform="translate(334.734375 0)"/>
      <use xlink:href="#DejaVuSans-48" transform="translate(362.515625 0)"/>
      <use xlink:href="#DejaVuSans-4f" transform="translate(424.046875 0)"/>
      <use xlink:href="#DejaVuSans-47" transform="translate(451.828125 0)"/>
      <use xlink:href="#DejaVuSans-3" transform="translate(515.3125 0)"/>
      <use xlink:href="#DejaVuSans-12" transform="translate(547.09375 0)"/>
      <use xlink:href="#DejaVuSans-3" transform="translate(580.78125 0)"/>
      <use xlink:href="#DejaVuSans-56" transform="translate(612.5625 0)"/>
      <use xlink:href="#DejaVuSans-57" transform="translate(664.65625 0)"/>
      <use xlink:href="#DejaVuSans-44" transform="translate(703.859375 0)"/>
      <use xlink:href="#DejaVuSans-4e" transform="translate(765.140625 0)"/>
      <use xlink:href="#DejaVuSans-48" transform="translate(819.484375 0)"/>
      <use xlink:href="#DejaVuSans-47" transform="translate(881.015625 0)"/>
      <use xlink:href="#DejaVuSans-3" transform="translate(944.5 0)"/>
      <use xlink:href="#DejaVuSans-56" transform="translate(976.28125 0)"/>
      <use xlink:href="#DejaVuSans-4b" transform="translate(1028.375 0)"/>
      <use xlink:href="#DejaVuSans-44" transform="translate(1091.75 0)"/>
      <use xlink:href="#DejaVuSans-55" transform="translate(1153.03125 0)"/>
      <use xlink:href="#DejaVuSans-48" transform="translate(1191.9375 0)"/>
     </g>
    </g>
    <g id="line2d_25">
     <path d="M 130.237031 126.992312 
L 139.237031 126.992312 
L 148.237031 126.992312 
" style="fill: none; stroke: #52514e; stroke-width: 1.3; stroke-linecap: square"/>
    </g>
    <g id="text_15">
     <!-- whole book (Proof of Solvency) -->
     <g style="fill: #0b0b0b" transform="translate(155.437031 130.142312) scale(0.09 -0.09)">
      <defs>
       <path id="DejaVuSans-5a" d="M 269 3500 
L 844 3500 
L 1563 769 
L 2278 3500 
L 2956 3500 
L 3675 769 
L 4391 3500 
L 4966 3500 
L 4050 0 
L 3372 0 
L 2619 2869 
L 1863 0 
L 1184 0 
L 269 3500 
z
" transform="scale(0.015625)"/>
       <path id="DejaVuSans-33" d="M 1259 4147 
L 1259 2394 
L 2053 2394 
Q 2494 2394 2734 2622 
Q 2975 2850 2975 3272 
Q 2975 3691 2734 3919 
Q 2494 4147 2053 4147 
L 1259 4147 
z
M 628 4666 
L 2053 4666 
Q 2838 4666 3239 4311 
Q 3641 3956 3641 3272 
Q 3641 2581 3239 2228 
Q 2838 1875 2053 1875 
L 1259 1875 
L 1259 0 
L 628 0 
L 628 4666 
z
" transform="scale(0.015625)"/>
       <path id="DejaVuSans-49" d="M 2375 4863 
L 2375 4384 
L 1825 4384 
Q 1516 4384 1395 4259 
Q 1275 4134 1275 3809 
L 1275 3500 
L 2222 3500 
L 2222 3053 
L 1275 3053 
L 1275 0 
L 697 0 
L 697 3053 
L 147 3053 
L 147 3500 
L 697 3500 
L 697 3744 
Q 697 4328 969 4595 
Q 1241 4863 1831 4863 
L 2375 4863 
z
" transform="scale(0.015625)"/>
       <path id="DejaVuSans-59" d="M 191 3500 
L 800 3500 
L 1894 563 
L 2988 3500 
L 3597 3500 
L 2284 0 
L 1503 0 
L 191 3500 
z
" transform="scale(0.015625)"/>
       <path id="DejaVuSans-51" d="M 3513 2113 
L 3513 0 
L 2938 0 
L 2938 2094 
Q 2938 2591 2744 2837 
Q 2550 3084 2163 3084 
Q 1697 3084 1428 2787 
Q 1159 2491 1159 1978 
L 1159 0 
L 581 0 
L 581 3500 
L 1159 3500 
L 1159 2956 
Q 1366 3272 1645 3428 
Q 1925 3584 2291 3584 
Q 2894 3584 3203 3211 
Q 3513 2838 3513 2113 
z
" transform="scale(0.015625)"/>
      </defs>
      <use xlink:href="#DejaVuSans-5a"/>
      <use xlink:href="#DejaVuSans-4b" transform="translate(81.78125 0)"/>
      <use xlink:href="#DejaVuSans-52" transform="translate(145.15625 0)"/>
      <use xlink:href="#DejaVuSans-4f" transform="translate(206.34375 0)"/>
      <use xlink:href="#DejaVuSans-48" transform="translate(234.125 0)"/>
      <use xlink:href="#DejaVuSans-3" transform="translate(295.65625 0)"/>
      <use xlink:href="#DejaVuSans-45" transform="translate(327.4375 0)"/>
      <use xlink:href="#DejaVuSans-52" transform="translate(390.921875 0)"/>
      <use xlink:href="#DejaVuSans-52" transform="translate(452.109375 0)"/>
      <use xlink:href="#DejaVuSans-4e" transform="translate(513.296875 0)"/>
      <use xlink:href="#DejaVuSans-3" transform="translate(571.203125 0)"/>
      <use xlink:href="#DejaVuSans-b" transform="translate(602.984375 0)"/>
      <use xlink:href="#DejaVuSans-33" transform="translate(642 0)"/>
      <use xlink:href="#DejaVuSans-55" transform="translate(700.546875 0)"/>
      <use xlink:href="#DejaVuSans-52" transform="translate(739.453125 0)"/>
      <use xlink:href="#DejaVuSans-52" transform="translate(800.640625 0)"/>
      <use xlink:href="#DejaVuSans-49" transform="translate(861.828125 0)"/>
      <use xlink:href="#DejaVuSans-3" transform="translate(897.03125 0)"/>
      <use xlink:href="#DejaVuSans-52" transform="translate(928.8125 0)"/>
      <use xlink:href="#DejaVuSans-49" transform="translate(990 0)"/>
      <use xlink:href="#DejaVuSans-3" transform="translate(1025.203125 0)"/>
      <use xlink:href="#DejaVuSans-36" transform="translate(1056.984375 0)"/>
      <use xlink:href="#DejaVuSans-52" transform="translate(1120.46875 0)"/>
      <use xlink:href="#DejaVuSans-4f" transform="translate(1181.65625 0)"/>
      <use xlink:href="#DejaVuSans-59" transform="translate(1209.4375 0)"/>
      <use xlink:href="#DejaVuSans-48" transform="translate(1268.625 0)"/>
      <use xlink:href="#DejaVuSans-51" transform="translate(1330.15625 0)"/>
      <use xlink:href="#DejaVuSans-46" transform="translate(1393.53125 0)"/>
      <use xlink:href="#DejaVuSans-5c" transform="translate(1448.515625 0)"/>
      <use xlink:href="#DejaVuSans-c" transform="translate(1507.703125 0)"/>
     </g>
    </g>
   </g>
  </g>
 </g>
 <defs>
  <clipPath id="p74f65e4547">
   <rect x="58.387196" y="11.34" width="247.072804" height="205.926733"/>
  </clipPath>
 </defs>
</svg>
